<svg viewBox="0 0 36 36" fill="none" xmlns="http://www.w3.org/2000/svg">
<circle cx="18" cy="18" r="17" fill="white" stroke="#104B8E" stroke-width="2"/>
<g clip-path="url(#clip0_1792_26329)">
<path fill-rule="evenodd" clip-rule="evenodd" d="M25.9688 24.7598C23.4488 25.8182 20.7322 26.3276 18 26.2539C15.2678 26.3276 12.5512 25.8182 10.0312 24.7598V15.7949C10.0312 15.7949 14.9121 11.3125 18 11.3125C21.0879 11.3125 25.9688 15.7949 25.9688 15.7949V24.7598ZM17.9644 16.6194C16.2633 16.6786 14.5679 16.8483 12.8888 17.1275C12.4546 17.1997 12.1612 17.6102 12.2334 18.0443C12.3057 18.4785 12.7161 18.7719 13.1503 18.6997C14.7546 18.4328 16.3746 18.2703 18 18.2129C19.6254 18.2703 21.2454 18.4328 22.8497 18.6997C23.2839 18.7719 23.6943 18.4785 23.7665 18.0444C23.8387 17.6102 23.5453 17.1997 23.1112 17.1275C21.4322 16.8483 19.7367 16.6786 18.0356 16.6194C18.0238 16.6189 18.0119 16.6187 18 16.6187C17.9881 16.6187 17.9762 16.6189 17.9644 16.6194ZM12.4387 21.2766C12.5286 20.8458 12.9507 20.5695 13.3815 20.6594C14.9092 20.9782 16.4584 21.1504 18.0121 21.1739C18.1023 21.1753 18.1888 21.1916 18.2693 21.2205C19.8009 21.1844 21.3273 21.0242 22.8333 20.7413C23.2659 20.66 23.6824 20.9448 23.7636 21.3773C23.8449 21.8099 23.5601 22.2264 23.1276 22.3076C21.4399 22.6247 19.7279 22.7959 18.0109 22.8193C17.9015 22.8208 17.7969 22.8002 17.7015 22.7616C16.1422 22.7207 14.5886 22.5394 13.0559 22.2195C12.6251 22.1296 12.3487 21.7075 12.4387 21.2766Z" fill="#104B8E"/>
<path d="M18 26.2539L18.0169 25.6291H17.9831L18 26.2539ZM25.9688 24.7598L26.2108 25.336L26.5938 24.7598H25.9688ZM10.0312 24.7598H9.40625L9.78922 25.336L10.0312 24.7598ZM10.0312 15.7949L9.6085 15.3346L9.40625 15.7949H10.0312ZM25.9688 15.7949H26.5938L26.3915 15.3346L25.9688 15.7949ZM12.8888 17.1275L12.7862 16.511H12.7862L12.8888 17.1275ZM17.9644 16.6194L17.9861 17.2441L17.9916 17.2438L17.9644 16.6194ZM12.2334 18.0443L11.6169 18.1469H11.6169L12.2334 18.0443ZM13.1503 18.6997L13.0477 18.0832H13.0477L13.1503 18.6997ZM18 18.2129L18.022 17.5883H17.978L18 18.2129ZM22.8497 18.6997L22.9523 18.0832L22.8497 18.6997ZM23.7665 18.0444L23.15 17.9418V17.9418L23.7665 18.0444ZM23.1112 17.1275L23.2138 16.511H23.2138L23.1112 17.1275ZM18.0356 16.6194L18.0084 17.2439L18.0139 17.2441L18.0356 16.6194ZM18 16.6187L17.9996 17.2437L18.0004 17.2437L18 16.6187ZM13.3815 20.6594L13.2538 21.2712H13.2538L13.3815 20.6594ZM12.4387 21.2766L13.0505 21.4043V21.4043L12.4387 21.2766ZM18.0121 21.1739L18.0026 21.7988H18.0026L18.0121 21.1739ZM18.2693 21.2205L18.0582 21.8087L18.284 21.8453L18.2693 21.2205ZM22.8333 20.7413L22.9487 21.3555H22.9487L22.8333 20.7413ZM23.7636 21.3773L24.3779 21.2619V21.2619L23.7636 21.3773ZM23.1276 22.3076L23.243 22.9219H23.243L23.1276 22.3076ZM18.0109 22.8193L18.0023 22.1944H18.0023L18.0109 22.8193ZM17.7015 22.7616L17.9358 22.1822L17.7178 22.1368L17.7015 22.7616ZM13.0559 22.2195L12.9282 22.8313H12.9282L13.0559 22.2195ZM17.9831 26.8787C20.8041 26.9548 23.609 26.4288 26.2108 25.336L25.7267 24.1835C23.2887 25.2076 20.6603 25.7004 18.0169 25.6291L17.9831 26.8787ZM9.78922 25.336C12.391 26.4288 15.1958 26.9548 18.0169 26.8787L17.9831 25.6291C15.3397 25.7004 12.7114 25.2076 10.2733 24.1835L9.78922 25.336ZM9.40625 15.7949V24.7598H10.6562V15.7949H9.40625ZM18 10.6875C17.0928 10.6875 16.1102 11.0119 15.1858 11.4475C14.2508 11.8881 13.3195 12.4694 12.5001 13.0411C11.6787 13.6142 10.9578 14.1859 10.4427 14.6138C10.1849 14.828 9.97775 15.0069 9.83447 15.1328C9.76281 15.1958 9.70706 15.2455 9.66887 15.2799C9.64977 15.2971 9.63505 15.3104 9.62493 15.3196C9.61986 15.3242 9.61594 15.3278 9.6132 15.3303C9.61182 15.3315 9.61074 15.3325 9.60996 15.3333C9.60957 15.3336 9.60925 15.3339 9.609 15.3341C9.60888 15.3342 9.60876 15.3344 9.60869 15.3344C9.60859 15.3345 9.6085 15.3346 10.0312 15.7949C10.454 16.2553 10.454 16.2553 10.4539 16.2553C10.4539 16.2553 10.4539 16.2553 10.4539 16.2553C10.454 16.2553 10.4541 16.2551 10.4543 16.255C10.4547 16.2546 10.4554 16.254 10.4564 16.2531C10.4584 16.2513 10.4615 16.2484 10.4658 16.2445C10.4743 16.2368 10.4874 16.2249 10.5048 16.2093C10.5396 16.178 10.5917 16.1314 10.6595 16.0718C10.7952 15.9526 10.9936 15.7813 11.2415 15.5753C11.7381 15.1627 12.4304 14.6138 13.2153 14.0663C14.0021 13.5174 14.87 12.9781 15.7186 12.5783C16.5778 12.1734 17.3633 11.9375 18 11.9375V10.6875ZM25.9688 15.7949C26.3915 15.3346 26.3914 15.3345 26.3913 15.3344C26.3912 15.3344 26.3911 15.3342 26.391 15.3341C26.3908 15.3339 26.3904 15.3336 26.39 15.3333C26.3893 15.3325 26.3882 15.3315 26.3868 15.3303C26.3841 15.3278 26.3801 15.3242 26.3751 15.3196C26.3649 15.3104 26.3502 15.2971 26.3311 15.2799C26.2929 15.2455 26.2372 15.1958 26.1655 15.1328C26.0223 15.0069 25.8151 14.828 25.5573 14.6138C25.0422 14.1859 24.3213 13.6142 23.4999 13.0411C22.6805 12.4694 21.7492 11.8881 20.8142 11.4475C19.8898 11.0119 18.9072 10.6875 18 10.6875V11.9375C18.6367 11.9375 19.4222 12.1734 20.2814 12.5783C21.13 12.9781 21.9979 13.5174 22.7847 14.0663C23.5696 14.6138 24.2619 15.1627 24.7585 15.5753C25.0064 15.7813 25.2048 15.9526 25.3405 16.0718C25.4083 16.1314 25.4604 16.178 25.4952 16.2093C25.5126 16.2249 25.5257 16.2368 25.5342 16.2445C25.5385 16.2484 25.5416 16.2513 25.5436 16.2531C25.5446 16.254 25.5453 16.2546 25.5457 16.255C25.5459 16.2551 25.546 16.2553 25.5461 16.2553C25.5461 16.2553 25.5461 16.2553 25.5461 16.2553C25.546 16.2553 25.546 16.2553 25.9688 15.7949ZM26.5938 24.7598V15.7949H25.3438V24.7598H26.5938ZM12.9913 17.7441C14.6436 17.4692 16.312 17.3023 17.9861 17.2441L17.9427 15.9948C16.2145 16.0549 14.4921 16.2273 12.7862 16.511L12.9913 17.7441ZM12.85 17.9418C12.8344 17.8482 12.8977 17.7596 12.9913 17.7441L12.7862 16.511C12.0116 16.6398 11.4881 17.3723 11.6169 18.1469L12.85 17.9418ZM13.0477 18.0832C12.9541 18.0987 12.8656 18.0354 12.85 17.9418L11.6169 18.1469C11.7458 18.9215 12.4782 19.4451 13.2528 19.3162L13.0477 18.0832ZM17.978 17.5883C16.3255 17.6466 14.6787 17.8119 13.0477 18.0832L13.2528 19.3162C14.8305 19.0538 16.4236 18.8939 18.022 18.8375L17.978 17.5883ZM22.9523 18.0832C21.3213 17.8119 19.6744 17.6466 18.022 17.5883L17.978 18.8375C19.5764 18.8939 21.1695 19.0538 22.7472 19.3162L22.9523 18.0832ZM23.15 17.9418C23.1344 18.0354 23.0459 18.0987 22.9523 18.0832L22.7472 19.3162C23.5218 19.4451 24.2542 18.9215 24.3831 18.1469L23.15 17.9418ZM23.0087 17.7441C23.1023 17.7596 23.1656 17.8482 23.15 17.9418L24.3831 18.1469C24.5119 17.3723 23.9884 16.6398 23.2138 16.511L23.0087 17.7441ZM18.0139 17.2441C19.6879 17.3023 21.3564 17.4692 23.0087 17.7441L23.2138 16.511C21.508 16.2273 19.7855 16.0549 18.0573 15.9948L18.0139 17.2441ZM18.0004 17.2437C18.0031 17.2437 18.0057 17.2437 18.0084 17.2438L18.0629 15.995C18.0419 15.9941 18.0208 15.9937 17.9996 15.9937L18.0004 17.2437ZM17.9916 17.2438C17.9943 17.2437 17.9969 17.2437 17.9996 17.2437L18.0004 15.9937C17.9792 15.9937 17.9581 15.9941 17.9371 15.995L17.9916 17.2438ZM13.5092 20.0476C12.7405 19.8871 11.9873 20.3802 11.8268 21.1489L13.0505 21.4043C13.0699 21.3114 13.1609 21.2518 13.2538 21.2712L13.5092 20.0476ZM18.0215 20.549C16.5078 20.526 14.9982 20.3583 13.5092 20.0476L13.2538 21.2712C14.8203 21.5981 16.4091 21.7747 18.0026 21.7988L18.0215 20.549ZM18.4804 20.6322C18.3361 20.5804 18.1815 20.5514 18.0215 20.549L18.0026 21.7988C18.0232 21.7992 18.0416 21.8028 18.0582 21.8087L18.4804 20.6322ZM22.718 20.127C21.2452 20.4037 19.7524 20.5604 18.2546 20.5957L18.284 21.8453C19.8494 21.8085 21.4095 21.6447 22.9487 21.3555L22.718 20.127ZM24.3779 21.2619C24.2329 20.4902 23.4897 19.982 22.718 20.127L22.9487 21.3555C23.042 21.338 23.1319 21.3994 23.1494 21.4927L24.3779 21.2619ZM23.243 22.9219C24.0147 22.7769 24.5229 22.0337 24.3779 21.2619L23.1494 21.4927C23.1669 21.586 23.1055 21.6758 23.0122 21.6934L23.243 22.9219ZM18.0194 23.4442C19.7723 23.4203 21.52 23.2455 23.243 22.9219L23.0122 21.6934C21.3597 22.0038 19.6835 22.1714 18.0023 22.1944L18.0194 23.4442ZM17.4671 23.341C17.6383 23.4102 17.8253 23.4469 18.0194 23.4442L18.0023 22.1944C17.9776 22.1947 17.9555 22.1901 17.9358 22.1822L17.4671 23.341ZM12.9282 22.8313C14.4974 23.1588 16.0883 23.3445 17.6851 23.3863L17.7178 22.1368C16.1962 22.0969 14.6798 21.92 13.1836 21.6077L12.9282 22.8313ZM11.8268 21.1489C11.6664 21.9177 12.1595 22.6709 12.9282 22.8313L13.1836 21.6077C13.0907 21.5883 13.0311 21.4973 13.0505 21.4043L11.8268 21.1489Z" fill="#104B8E"/>
<path d="M10.0312 24.7265C9.04214 24.1179 8.22534 23.2661 7.65866 22.2523C7.09198 21.2386 6.79429 20.0966 6.79395 18.9352V14.8194C6.79391 14.6708 6.82461 14.5238 6.88411 14.3876C6.94361 14.2514 7.03063 14.129 7.1397 14.0281C7.24877 13.9271 7.37754 13.8498 7.51792 13.8011C7.65829 13.7523 7.80723 13.733 7.95539 13.7446C8.1693 13.7612 8.37695 13.8246 8.56357 13.9305C8.75017 14.0364 8.91119 14.1821 9.03516 14.3572L10.0312 15.7617" stroke="#104B8E" stroke-width="1.875" stroke-linecap="round" stroke-linejoin="round"/>
<path d="M25.9688 24.7265C26.9582 24.1177 27.7752 23.2656 28.3418 22.2515C28.9085 21.2374 29.2061 20.0949 29.2061 18.9332V14.8194C29.2061 14.6708 29.1754 14.5238 29.1159 14.3876C29.0564 14.2514 28.9694 14.129 28.8603 14.0281C28.7512 13.9271 28.6224 13.8498 28.4821 13.8011C28.3417 13.7523 28.1927 13.733 28.0446 13.7446C27.8306 13.7612 27.6231 13.8246 27.4364 13.9305C27.2498 14.0364 27.0889 14.1821 26.9648 14.3572L25.9688 15.7617" stroke="#104B8E" stroke-width="1.875" stroke-linecap="round" stroke-linejoin="round"/>
</g>
<defs>
<clipPath id="clip0_1792_26329">
<rect width="25.5" height="25.5" fill="white" transform="translate(5.25 6)"/>
</clipPath>
</defs>
</svg>
